<svg width="879" height="145" viewBox="0 0 879 145" fill="none" xmlns="http://www.w3.org/2000/svg">
<path d="M32.396 6.14396C33.8605 3.35009 31.834 0 28.6796 0H0V57.2671C0 85.2797 14.0018 111.439 37.3082 126.979L42.6193 130.52C45.1053 132.177 48.4847 131.196 49.6958 128.464C50.6566 126.298 49.887 123.768 47.976 122.367C30.014 109.191 19.302 88.1948 19.302 65.7527V19.6259C19.302 14.1462 23.26 9.64457 28.401 8.71647C30.0371 8.42111 31.6242 7.61647 32.396 6.14396Z" fill="#DC5D30"/>
<path d="M118.197 6.14396C116.733 3.35009 118.759 0 121.913 0H150.593V57.2671C150.593 85.2797 136.591 111.439 113.285 126.979L107.974 130.52C105.488 132.177 102.108 131.196 100.897 128.464C99.9365 126.298 100.706 123.768 102.617 122.367C120.579 109.191 131.291 88.1948 131.291 65.7527V19.6259C131.291 14.1462 127.333 9.64457 122.192 8.71647C120.556 8.42111 118.969 7.61647 118.197 6.14396Z" fill="#DC5D30"/>
<path d="M65.6967 85.2694C64.8958 87.0691 62.5112 87.465 61.1884 86.0073C56.1582 80.5091 51.3529 74.606 51.2089 66.5163C51.1279 62.5299 51.7128 58.0666 53.5216 54.6202C59.4156 43.4079 66.0386 32.5736 72.3736 21.5863C74.0654 18.6618 75.7763 18.546 77.5658 21.5053C83.8738 33.0595 90.6318 44.3798 96.8588 55.9789C100.17 62.152 99.5854 68.658 96.2469 74.75C94.3212 78.2595 91.9996 81.571 89.048 85.6563C87.8422 87.3301 85.2776 87.1141 84.3688 85.2604C82.56 81.571 80.7693 77.9265 78.9156 74.1381C77.1879 70.6197 72.139 70.7222 70.5559 74.3001C68.9992 77.8186 67.2264 81.8229 65.7057 85.2604L65.6967 85.2694Z" fill="#DC5D30"/>
<path d="M278.593 45.8176C276.039 41.8591 274.683 36.734 274.683 30.9798C274.683 21.136 277.882 16.9285 285.399 16.9285C288.506 16.9285 290.77 17.7018 292.337 19.314C294.338 21.3719 295.246 24.8323 295.167 30.2064H308.687C308.74 24.3474 307.357 20.0612 304.461 17.112C301.052 13.6253 295.549 12 287.163 12C272.05 12 264.691 18.6587 264.691 32.343V46.1191H252.593V51.8733H264.691V108.852H252.593V114.016H300.749V108.852H279.172V51.8733H300.749V46.1191H278.79L278.593 45.8176Z" fill="#DC5D30"/>
<path d="M319.759 108.852H305.896V114.016H347.562V108.852H334.239V18.3698L344.929 18.7762V12.8909H319.759V108.852Z" fill="#DC5D30"/>
<path d="M399.312 92.8616C399.312 103.439 393.098 108.814 380.855 108.814C370.916 108.814 365.65 104.514 365.65 96.3875C365.65 86.452 373.562 85.1543 381.922 83.778C387.727 82.8212 393.73 81.8381 398.246 78.1549L399.312 77.2898V92.8747V92.8616ZM545.294 108.853V65.9124C545.294 51.6775 539.185 44.7567 526.626 44.7567C517.622 44.7567 509.117 48.5317 499.863 56.6453L499.112 57.3138L498.81 56.357C496.387 48.5579 490.634 44.7567 481.209 44.7567C471.783 44.7567 463.134 48.689 455.683 55.8195L454.498 56.9599L455.103 46.1199H428.287V51.9659L440.385 51.4285V108.853H420.125C418.585 108.853 417.032 108.329 415.952 107.241C415.952 107.241 415.939 107.228 415.926 107.214C414.306 105.576 413.53 103.151 413.53 99.7693V65.0997C413.53 51.4154 404.617 44.7567 386.292 44.7567C366.44 44.7567 356.633 51.8217 356.356 66.3581H370.969C371.1 54.3777 375.089 49.6983 385.068 49.6983C394.178 49.6983 399.18 54.3515 399.18 62.8059V65.5061C399.18 77.0014 388.306 78.168 376.788 79.4001C364.136 80.7502 351.051 82.1527 351.051 97.4624C351.051 114.07 367.928 115.367 373.101 115.367C383.541 115.367 392.493 111.881 399.72 104.986L400.549 104.2L400.8 105.314C401.353 107.739 402.458 109.6 403.933 111.016C406.065 113.047 409.001 114.017 411.95 114.017H465.043V108.853H454.708V71.0637C454.708 59.5552 461.264 52.4116 471.809 52.4116C481.643 52.4116 485.645 57.7726 485.645 70.9195V108.853H474.64V114.017H510.737V108.853H500.126V71.0637C500.126 59.5552 506.629 52.4116 517.095 52.4116C526.929 52.4116 530.931 57.7726 530.931 70.9195V108.853H519.794V114.004H556.839V108.853H545.28H545.294ZM422.482 109.482C422.179 109.482 421.889 109.469 421.613 109.443C422.442 109.469 422.863 109.482 422.482 109.482Z" fill="#DC5D30"/>
<path d="M615.79 89.9901C615.605 103.622 609.602 110.032 596.925 110.163C583.365 110.163 576.02 105.287 576.02 79.5958V77.4592H623.122C624.031 65.61 622.148 57.3391 617.382 52.1878C612.709 47.1283 605.126 44.7689 593.528 44.7689C571.767 44.7689 560.722 56.6182 560.722 80.0021C560.722 104.697 570.859 115.288 594.595 115.38H594.871C614.802 115.248 625.9 106.244 626.176 89.9901H615.776H615.79ZM576.283 71.9803C577.415 53.433 583.615 49.7105 593.252 49.7105C597.886 49.7105 601.282 50.9164 603.639 53.4199C607.72 57.7585 607.812 65.2823 607.364 72.072L607.325 72.675H576.243L576.283 71.9934V71.9803Z" fill="#DC5D30"/>
<path d="M650.372 14.7137C643.869 14.7137 641.091 17.4401 641.091 23.8104C641.091 30.1807 643.948 32.907 650.372 32.907C656.797 32.907 659.245 30.2724 659.245 23.8104C659.245 17.3483 656.757 14.7137 650.372 14.7137Z" fill="#DC5D30"/>
<path d="M629.678 51.9773L643.132 51.4399V125.039L622.411 138.592L625.821 144.084L657.745 123.112V46.1182H629.678V51.9773Z" fill="#DC5D30"/>
<path d="M797.644 44.7567C789.943 44.7567 782.676 48.7152 775.423 56.8682L774.225 58.2051L774.672 46.1199H747.843V51.9659L759.809 51.4285V108.853H738.114C737.114 108.473 736.271 107.935 735.574 107.214C733.994 105.589 733.217 103.151 733.217 99.7693V65.0997C733.217 51.4154 724.318 44.7567 705.993 44.7567C686.128 44.7567 676.333 51.8217 676.057 66.3581H690.669C690.801 54.3777 694.79 49.6983 704.769 49.6983C713.865 49.6983 718.881 54.3515 718.881 62.8059V65.5061C718.881 77.0014 708.007 78.168 696.488 79.4001C683.837 80.7502 670.738 82.1527 670.738 97.4624C670.738 114.07 687.628 115.367 692.802 115.367C703.241 115.367 712.193 111.881 719.421 104.986L720.25 104.2L720.5 105.314C721.053 107.739 722.159 109.587 723.607 111.003C725.713 113.034 728.636 114.004 731.558 114.004H795.498V108.853H774.422V70.5132C774.422 61.9015 780.978 52.2674 789.759 52.2674C798.539 52.2674 799.382 59.5421 799.382 67.0003V72.571H812.362V64.156C812.362 51.1008 807.544 44.7567 797.644 44.7567ZM719.013 92.8616C719.013 103.439 712.799 108.8 700.556 108.8C690.617 108.8 685.351 104.501 685.351 96.3744C685.351 86.4389 693.263 85.1412 701.635 83.778C707.441 82.8212 713.444 81.8381 717.959 78.1418L719.013 77.2767V92.8616Z" fill="#DC5D30"/>
<path d="M851.185 73.527C840.943 72.0589 831.267 70.6695 831.267 61.7301C831.267 53.8656 835.953 49.7105 844.826 49.7105C856.016 49.7105 861.953 55.3467 863.493 67.445H874.104V46.1321H864.033L864.876 57.0769L863.441 54.6127C859.61 47.9934 853.159 44.782 843.747 44.782C829.213 44.782 820.195 52.581 820.195 65.125C820.195 81.9551 834.65 84.013 847.419 85.8481C857.754 87.3293 867.522 88.7187 867.522 97.894C867.522 106.322 862.045 110.595 851.237 110.595C837.454 110.595 830.542 104.658 828.897 91.3664H818.299V114.043H828.515L827.686 102.219L829.081 104.618C833.32 111.88 840.877 115.406 852.185 115.406C868.483 115.406 878.593 107.358 878.593 94.3811C878.593 77.4723 864.033 75.3882 851.185 73.5532V73.527Z" fill="#DC5D30"/>
</svg>
